<?xml version="1.0" encoding="utf-8"?>
<!-- Generator: Adobe Illustrator 17.1.0, SVG Export Plug-In . SVG Version: 6.00 Build 0)  -->
<!DOCTYPE svg PUBLIC "-//W3C//DTD SVG 1.1//EN" "http://www.w3.org/Graphics/SVG/1.1/DTD/svg11.dtd">
<svg version="1.1" id="Layer_1" xmlns="http://www.w3.org/2000/svg" xmlns:xlink="http://www.w3.org/1999/xlink" x="0px" y="0px"
	 viewBox="419.883 0 1080.234 1080.233" enable-background="new 419.883 0 1080.234 1080.233" xml:space="preserve">
<path fill="#0E1C21" d="M960,0C661.701,0,419.883,241.818,419.883,540.117S661.701,1080.233,960,1080.233
	s540.117-241.818,540.117-540.117S1258.299,0,960,0z M1344.498,569.561l-36.948,12.122c-26.943,8.471-57.541,12.701-91.792,12.701
	l-54.268-1.155L919.015,967.334H833.57L990.602,586.3l-331.387-10.388l-60.619,92.371h-64.082l57.155-128.167L534.514,411.95h64.082
	l60.619,92.371l331.385-10.39L833.568,112.899h85.444l242.474,373.526l56-0.576c33.096,0,63.117,4.24,90.063,12.701l36.948,12.122
	c27.324,9.238,40.99,18.861,40.99,28.866C1385.488,550.319,1371.82,560.324,1344.498,569.561z"/>
</svg>
